<svg width="41" height="40" viewBox="0 0 41 40" fill="none" xmlns="http://www.w3.org/2000/svg">
<path d="M22.75 35C22.75 35.992 22.8466 36.963 23.0275 37.893C23.2084 38.823 23.4738 39.692 23.8016 40.457C23.9167 40.732 23.9792 40.921 23.9792 41H25.0417C25.0417 40.921 25.1042 40.732 25.2188 40.457C25.5466 39.692 25.812 38.823 25.9929 37.893C26.1738 36.963 26.2708 35.992 26.2708 35V27H22.75V35Z" fill="#3D2A2A"/>
<path d="M14.75 35C14.75 35.992 14.8466 36.963 15.0275 37.893C15.2084 38.823 15.4738 39.692 15.8016 40.457C15.9167 40.732 15.9792 40.921 15.9792 41H17.0417C17.0417 40.921 17.1042 40.732 17.2188 40.457C17.5466 39.692 17.812 38.823 17.9929 37.893C18.1738 36.963 18.2708 35.992 18.2708 35V27H14.75V35Z" fill="#3D2A2A"/>
<path d="M20.5 0C17.74 0 15.5 2.24 15.5 5V19C15.5 20.326 15.9727 21.5979 16.8083 22.5355C17.6439 23.4732 18.7848 24 20 24H21C22.2152 24 23.3561 23.4732 24.1917 22.5355C25.0273 21.5979 25.5 20.326 25.5 19V5C25.5 2.24 23.26 0 20.5 0Z" fill="#3D2A2A"/>
</svg>
